<svg width="218" height="198" viewBox="0 0 218 198" fill="none" xmlns="http://www.w3.org/2000/svg">
<path d="M194 44.001C194 47.641 193.02 51.061 191.31 54.001C190.74 55.001 189.248 56.84 189.248 56.84L178.18 68.101C176.94 69.351 175.54 70.441 174 71.311C171.06 73.021 167.64 74.001 164 74.001H131.68C128.59 74.001 125.83 75.401 124 77.601L123.36 78.301L119.48 82.501L112.2 90.391L98.04 105.731L96.68 107.191L96.62 107.271C96.6 107.281 96.59 107.301 96.58 107.311C96.55 107.341 96.53 107.371 96.5 107.391C96.45 107.451 96.4 107.511 96.36 107.561C96.26 107.681 96.17 107.791 96.07 107.911C95.98 108.031 95.89 108.151 95.81 108.271C95.72 108.401 95.64 108.521 95.56 108.651C95.48 108.771 95.4 108.901 95.33 109.031C95.25 109.171 95.18 109.301 95.11 109.431C95.04 109.581 94.96 109.731 94.89 109.881C94.82 110.031 94.76 110.191 94.69 110.341C94.65 110.451 94.61 110.571 94.57 110.681C94.52 110.821 94.47 110.971 94.42 111.121C94.38 111.261 94.34 111.411 94.3 111.561C94.26 111.711 94.23 111.861 94.2 112.011C94.17 112.161 94.14 112.321 94.12 112.471C94.09 112.621 94.07 112.781 94.06 112.931C94.04 113.091 94.03 113.251 94.02 113.411C94.01 113.571 94.01 113.731 94 113.881V154.001C94 159.521 98.48 164.001 104 164.001C105.46 164.001 106.85 163.691 108.1 163.111C108.8 162.791 109.46 162.401 110.06 161.951L110.09 161.921L118.09 154.001C118.09 154.001 122.55 149.371 123.11 148.101C123.69 146.851 124 145.461 124 144.001V114.001C124.01 111.241 126.24 109.011 129 109.011C130.76 109.011 132.3 109.921 133.19 111.301C133.71 112.081 134 113.001 134 114.001V144.001C134 147.351 133.15 150.921 131.5 153.851C129.73 156.981 126.59 159.681 124.1 162.231C120.44 165.961 116.61 170.411 111.71 172.451C109.34 173.451 106.73 174.001 104 174.001C100.82 174.001 97.8 173.251 95.12 171.921C94.74 171.731 94.37 171.531 94 171.311C90.96 169.571 88.43 167.041 86.69 164.001C84.98 161.061 84 157.641 84 154.001V114.001C84 113.651 84.01 113.311 84.03 112.971C84.04 112.691 84.06 112.411 84.09 112.131V112.081C84.09 112.051 84.1 112.011 84.1 111.981C84.12 111.811 84.13 111.651 84.16 111.481C84.16 111.441 84.17 111.391 84.18 111.351C84.19 111.241 84.21 111.131 84.23 111.021C84.24 110.901 84.26 110.781 84.28 110.661C84.33 110.351 84.39 110.041 84.46 109.741C84.54 109.361 84.63 108.981 84.74 108.611C84.85 108.231 84.96 107.871 85.09 107.501C85.16 107.281 85.24 107.071 85.32 106.861C85.39 106.671 85.47 106.481 85.55 106.291C85.72 105.901 85.89 105.511 86.09 105.121C86.18 104.931 86.27 104.741 86.38 104.561C86.48 104.371 86.58 104.181 86.69 104.001C86.8 103.801 86.91 103.611 87.03 103.421C87.09 103.321 87.15 103.221 87.23 103.121C87.33 102.941 87.45 102.771 87.57 102.601C87.73 102.371 87.89 102.151 88.06 101.931C88.18 101.761 88.31 101.591 88.47 101.411C88.47 101.411 107.42 80.851 107.42 80.841C107.42 80.841 116.45 71.051 116.52 70.981L117.51 69.901C117.55 69.861 117.59 69.821 117.63 69.781C118.42 69.001 119.27 68.291 120.18 67.641C121.5 66.711 122.95 65.931 124.49 65.341C124.5 65.341 124.51 65.331 124.52 65.331C126.74 64.471 129.16 64.001 131.68 64.001H164C165.46 64.001 166.85 63.691 168.11 63.111C169.19 62.621 170.17 61.951 171.01 61.121L181.4 50.721L181.46 50.651C182.14 49.901 182.7 49.041 183.11 48.101C183.69 46.851 184 45.461 184 44.001C184 38.481 179.52 34.001 174 34.001H134C132.54 34.001 131.15 34.311 129.89 34.891C129.63 35.011 129.39 35.131 129.14 35.271C128.54 35.601 127.98 35.991 127.47 36.441C127.26 36.611 127.07 36.791 126.88 36.981L126.5 37.391L114.91 49.951C114.91 49.951 114.82 50.051 114.81 50.061L111.53 53.621L111.18 54.001L100.04 66.091L99.62 66.551C97.93 68.341 96.04 70.141 94 71.311C91.06 73.021 87.64 74.001 84 74.001H44C40.36 74.001 36.94 73.021 34 71.311C30.96 69.571 28.43 67.041 26.69 64.001C24.98 61.061 24 57.641 24 54.001C24 50.361 24.98 46.941 26.69 44.001C27.22 43.061 27.84 42.171 28.52 41.341L40.41 29.331C41.5 28.321 42.7 27.431 44 26.691C46.94 24.981 50.36 24.001 54 24.001C54 24.001 84 24.001 84 24.011C86.48 24.011 88.54 25.811 88.93 28.181C88.98 28.451 89 28.721 89 29.001C89 31.771 86.76 34.001 84 34.001H58.28C54.775 34.001 51.246 33.711 48.218 35.862C45.328 37.916 35.225 49.142 34.89 49.9C34.31 51.15 34 52.54 34 54C34 59.52 38.48 64 44 64H84C85.46 64 86.85 63.69 88.11 63.11C89.26 62.59 90.3 61.86 91.17 60.96L91.54 60.57L95.26 56.53L107.18 43.6L118.97 30.81L119.52 30.21C120.83 28.83 122.34 27.64 124 26.69C126.94 24.98 130.36 24 134 24H174C177.64 24 181.06 24.98 184 26.69C187.04 28.43 189.57 30.96 191.31 34C193.02 36.94 194 40.361 194 44.001Z" fill="#7C3AED"/>
</svg>
